<?xml version="1.0" encoding="UTF-8" standalone="no"?>
<svg
   xmlns:dc="http://purl.org/dc/elements/1.1/"
   xmlns:cc="http://creativecommons.org/ns#"
   xmlns:rdf="http://www.w3.org/1999/02/22-rdf-syntax-ns#"
   xmlns:svg="http://www.w3.org/2000/svg"
   xmlns="http://www.w3.org/2000/svg"
   xmlns:sodipodi="http://sodipodi.sourceforge.net/DTD/sodipodi-0.dtd"
   xmlns:inkscape="http://www.inkscape.org/namespaces/inkscape"
   width="16.0px"
   height="16.0px"
   viewBox="0 0 16.0 16.0"
   version="1.1"
   id="SVGRoot"
   sodipodi:docname="quest.svg"
   inkscape:version="1.0.2 (e86c870879, 2021-01-15)">
  <defs
     id="defs1233" />
  <sodipodi:namedview
     id="base"
     pagecolor="#ffffff"
     bordercolor="#666666"
     borderopacity="1.0"
     inkscape:pageopacity="0.0"
     inkscape:pageshadow="2"
     inkscape:zoom="23.56"
     inkscape:cx="8.3575026"
     inkscape:cy="9.9943706"
     inkscape:document-units="px"
     inkscape:current-layer="layer1"
     inkscape:document-rotation="0"
     showgrid="true"
     inkscape:window-width="1366"
     inkscape:window-height="743"
     inkscape:window-x="0"
     inkscape:window-y="0"
     inkscape:window-maximized="1"
     inkscape:snap-global="false"
     inkscape:snap-bbox="true">
    <inkscape:grid
       type="xygrid"
       id="grid1803" />
  </sodipodi:namedview>
  <metadata
     id="metadata1236">
    <rdf:RDF>
      <cc:Work
         rdf:about="">
        <dc:format>image/svg+xml</dc:format>
        <dc:type
           rdf:resource="http://purl.org/dc/dcmitype/StillImage" />
        <dc:title></dc:title>
      </cc:Work>
    </rdf:RDF>
  </metadata>
  <g
     inkscape:label="图层 1"
     inkscape:groupmode="layer"
     id="layer1"
     style="mix-blend-mode:normal">
    <path
       id="path1818"
       style="fill:#000000;fill-opacity:1;stroke:none;stroke-width:15.0009;stroke-linecap:butt;stroke-linejoin:round;stroke-miterlimit:4;stroke-dasharray:none;stroke-dashoffset:0;stroke-opacity:1;paint-order:normal"
       d="M 8,1 C 4.1340068,1 1,4.1340068 1,8 c 0,3.865993 3.1340068,7 7,7 6,0 8.473557,0.06105 7.03125,-1.472656 C 14.086581,12.522805 15,9.5980358 15,8 15,4.1340068 11.865993,1 8,1 Z m 0.0625,2.9570312 c 0.3632813,0 0.6894531,0.050781 0.9785156,0.1523438 0.2929688,0.097656 0.5410157,0.2402344 0.7441406,0.4277344 0.203125,0.1875 0.3593748,0.4179688 0.4687498,0.6914062 0.109375,0.2695313 0.164063,0.5742188 0.164063,0.9140625 0,0.2617188 -0.02734,0.4960938 -0.08203,0.703125 -0.05078,0.203125 -0.128905,0.3925781 -0.234376,0.5683594 C 9.996093,7.5898438 9.8652344,7.7597657 9.7089844,7.9238281 9.5527344,8.0878907 9.3691406,8.2617188 9.1582031,8.4453125 8.9550781,8.6210938 8.7890625,8.7753907 8.6601562,8.9082031 8.53125,9.0371094 8.4296875,9.1640625 8.3554688,9.2890625 c -0.074219,0.1210937 -0.125,0.2460937 -0.1523438,0.375 C 8.175781,9.7929688 8.162109,9.9433594 8.162109,10.115234 v 0.105469 H 7.3476562 v -0.216797 c 0,-0.222656 0.013672,-0.4238278 0.041016,-0.6035154 C 7.4199216,9.2207032 7.4726563,9.0527344 7.546875,8.8964844 7.625,8.7402344 7.7285156,8.5878907 7.8574219,8.4394531 7.9863281,8.2871094 8.1484375,8.1289062 8.34375,7.9648438 8.53125,7.8046875 8.6914062,7.6601563 8.8242188,7.53125 8.9570312,7.3984375 9.0644531,7.265625 9.1464844,7.1328125 c 0.085937,-0.1367187 0.1484375,-0.28125 0.1875,-0.4335937 0.042969,-0.15625 0.064453,-0.3378907 0.064453,-0.5449219 0,-0.1875 -0.029297,-0.3574219 -0.087891,-0.5097657 C 9.2519535,5.4882813 9.1660156,5.3554688 9.0527344,5.2460938 8.9433594,5.1328125 8.8046875,5.046875 8.6367188,4.9882812 8.4726562,4.9257812 8.28125,4.8945312 8.0625,4.8945312 c -0.3242187,0 -0.6328125,0.050781 -0.9257812,0.1523438 C 6.84375,5.1484375 6.5605469,5.265625 6.2871094,5.3984375 L 5.9179688,4.5488281 C 6.234375,4.3847657 6.5761719,4.2460938 6.9433594,4.1328125 7.3105469,4.015625 7.6835938,3.9570312 8.0625,3.9570312 Z M 7.8105469,11.181641 c 0.1015625,0 0.1972656,0.01563 0.2871093,0.04687 0.09375,0.02735 0.1738282,0.07422 0.2402344,0.140625 0.066406,0.0625 0.1191404,0.146484 0.1582032,0.251953 0.039063,0.101562 0.058594,0.226562 0.058594,0.375 0,0.144531 -0.019531,0.269531 -0.058594,0.375 -0.039063,0.101562 -0.091797,0.185546 -0.1582032,0.251953 -0.066406,0.06641 -0.1464841,0.115235 -0.2402344,0.146484 -0.089844,0.03125 -0.1855468,0.04687 -0.2871093,0.04687 -0.1054688,0 -0.203125,-0.01563 -0.2929688,-0.04687 -0.089844,-0.03125 -0.1679688,-0.08008 -0.234375,-0.146484 C 7.2167971,12.55664 7.1640628,12.472656 7.125,12.371094 c -0.039063,-0.105469 -0.058594,-0.230469 -0.058594,-0.375 0,-0.148438 0.019531,-0.273438 0.058594,-0.375 0.039063,-0.105469 0.091797,-0.189453 0.1582031,-0.251953 0.066406,-0.06641 0.144531,-0.113282 0.234375,-0.140625 0.089844,-0.03125 0.1875,-0.04687 0.2929688,-0.04687 z" />
    <g
       aria-label="?"
       id="text1906"
       style="font-style:normal;font-weight:normal;font-size:12px;line-height:1.25;font-family:sans-serif;letter-spacing:0px;word-spacing:0px;fill:#ffffff;fill-opacity:1;stroke:none" />
  </g>
</svg>
