<?xml version="1.0" encoding="UTF-8" standalone="no"?>
<svg
   xmlns:dc="http://purl.org/dc/elements/1.1/"
   xmlns:cc="http://creativecommons.org/ns#"
   xmlns:rdf="http://www.w3.org/1999/02/22-rdf-syntax-ns#"
   xmlns:svg="http://www.w3.org/2000/svg"
   xmlns="http://www.w3.org/2000/svg"
   xmlns:sodipodi="http://sodipodi.sourceforge.net/DTD/sodipodi-0.dtd"
   xmlns:inkscape="http://www.inkscape.org/namespaces/inkscape"
   width="25"
   height="25"
   viewBox="0 0 25 25"
   version="1.1"
   id="SVGRoot"
   sodipodi:docname="guard.svg"
   inkscape:version="1.0.2 (e86c870879, 2021-01-15)">
  <defs
     id="defs1233" />
  <sodipodi:namedview
     id="base"
     pagecolor="#ffffff"
     bordercolor="#666666"
     borderopacity="1.0"
     inkscape:pageopacity="0.0"
     inkscape:pageshadow="2"
     inkscape:zoom="20.584137"
     inkscape:cx="12.339561"
     inkscape:cy="13.179196"
     inkscape:document-units="px"
     inkscape:current-layer="layer1"
     inkscape:document-rotation="0"
     showgrid="true"
     inkscape:window-width="1366"
     inkscape:window-height="743"
     inkscape:window-x="0"
     inkscape:window-y="0"
     inkscape:window-maximized="1"
     inkscape:snap-global="false"
     inkscape:snap-bbox="true"
     inkscape:pagecheckerboard="true">
    <inkscape:grid
       type="xygrid"
       id="grid1803" />
  </sodipodi:namedview>
  <metadata
     id="metadata1236">
    <rdf:RDF>
      <cc:Work
         rdf:about="">
        <dc:format>image/svg+xml</dc:format>
        <dc:type
           rdf:resource="http://purl.org/dc/dcmitype/StillImage" />
        <dc:title></dc:title>
      </cc:Work>
    </rdf:RDF>
  </metadata>
  <g
     inkscape:label="图层 1"
     inkscape:groupmode="layer"
     id="layer1"
     sodipodi:insensitive="true">
    <g
       id="g2016"
       transform="matrix(1.5,0,0,1.5,0,0.9999985)">
      <path
         id="rect1937"
         style="fill:#000000;fill-opacity:1;stroke:none;stroke-width:15.0009;stroke-linecap:butt;stroke-linejoin:round;stroke-miterlimit:4;stroke-dasharray:none;stroke-dashoffset:0;stroke-opacity:1;paint-order:normal"
         d="m 4.9999998,3 c 2.1089006,-0.8860981 3,-2 3,-2 V 4 H 0.99999976 c 0,0 2.73293404,-0.4676161 4.00000004,-1 z"
         sodipodi:nodetypes="scccs"
         inkscape:label="tl" />
      <path
         id="rect1927-5"
         style="fill:#000000;fill-opacity:1;stroke:none;stroke-width:22.5014;stroke-linecap:butt;stroke-linejoin:round;stroke-miterlimit:4;stroke-dasharray:none;stroke-dashoffset:0;stroke-opacity:1;paint-order:normal"
         d="m 1.5,7 c 0,0 0.066541,5.528447 0.734375,8.185547 C 2.7037153,17.052902 3.7108275,18.921657 4.5,20.5 6.0000007,23.5 12,25 12,25 c 0,0 6,-1.5 7.5,-4.5 0.789172,-1.578344 1.796284,-3.447098 2.265625,-5.314453 C 22.433461,12.528447 22.5,7 22.5,7 H 12 Z M 20.970703,8.1484375 C 21.472477,8.2035341 19.949219,9.78125 19.949219,9.78125 16.699416,12.999811 14.052413,16.492157 12,20.255859 c -0.04962,0.091 -0.10342,0.180166 -0.152344,0.271485 H 10.529297 C 9.2105058,18.710971 7.5776463,16.963077 5.6308594,15.28125 L 7.609375,14.726562 c 1.4443902,1.446371 2.605181,2.842039 3.484375,4.1875 0.27969,-0.556424 0.587766,-1.108849 0.90625,-1.658203 1.683801,-2.904392 3.886525,-5.672369 6.447266,-7.8671871 0.522881,-0.4481632 -0.191383,0.00389 1.808593,-0.9960938 0.375,-0.1875 0.59905,-0.2568552 0.714844,-0.2441406 z"
         transform="matrix(0.66666667,0,0,0.66666667,0,-0.66666567)"
         inkscape:label="bot" />
      <path
         id="rect1937-3"
         style="fill:#000000;fill-opacity:1;stroke:none;stroke-width:15.0009;stroke-linecap:butt;stroke-linejoin:round;stroke-miterlimit:4;stroke-dasharray:none;stroke-dashoffset:0;stroke-opacity:1;paint-order:normal"
         d="m 11,3.0000001 c -2.1089007,-0.8860981 -3.0000001,-2 -3.0000001,-2 V 4 H 15 C 15,4 12.267066,3.532384 11,3.0000001 Z"
         sodipodi:nodetypes="scccs"
         inkscape:label="tr" />
    </g>
  </g>
</svg>
